<svg width="15" height="15" viewBox="0 0 15 15" xmlns="http://www.w3.org/2000/svg">
    <title>
        git
    </title>
    <path d="M3.121 3.643c-.803 0-1.495.247-2.074.739-.602.525-.904 1.181-.904 1.97 0 .524.164 1.017.495 1.476.296.427.605.7 1.01.82v.034c-.405.153-.585.536-.585 1.148 0 .471.18.821.585 1.05v.034c-1.118.339-1.63.968-1.63 1.887 0 .799.376 1.384 1.109 1.756.579.295 1.322.443 2.22.443 2.186 0 3.282-.848 3.282-2.544 0-1.061-.844-1.712-2.534-1.953-.39-.054-.685-.186-.885-.394-.154-.142-.23-.284-.23-.426 0-.405.236-.64.709-.706.72-.098 1.309-.408 1.764-.927a2.69 2.69 0 0 0 .682-1.83c0-.219-.071-.454-.166-.706.307-.065.523-.126.685-.18v-1.69c-.713.262-1.376.393-1.944.393a3.303 3.303 0 0 0-1.589-.394zm.195 8.19c.993 0 1.49.279 1.49.837 0 .59-.455.886-1.365.886-1.04 0-1.56-.285-1.56-.854 0-.58.478-.87 1.435-.87zM3.192 7.5c-.744 0-1.116-.377-1.116-1.132 0-.81.372-1.215 1.116-1.215.355 0 .633.126.834.378.165.23.248.503.248.82 0 .766-.36 1.149-1.082 1.149zM8.582 0a1.2 1.2 0 0 0-.877.361c-.243.24-.364.53-.364.87 0 .328.121.612.364.853.242.24.534.361.877.361.33 0 .618-.12.86-.36.242-.242.363-.526.363-.854 0-.34-.12-.63-.363-.87A1.18 1.18 0 0 0 8.582 0zm.993 3.75H7.572c.023.21-.01.528-.01 1.042v5.104c0 .525.033.949.01 1.114h2.003c-.024-.24-.086-.654-.086-1.212V4.759c0-.481.062-.799.086-1.009zm4.418 5.687c-.52 0-.777-.367-.777-1.1V5.31h.789c.142 0 .27-.007.43.004.159.01.223.003.304.003V3.75h-1.523v-.697c0-.263.045-.503.08-.653H11.24c.035.15.032.38.032.685v.665h-.891v1.567c.243-.033.46-.049.614-.049l.277.016v2.971c0 .919.126 1.592.374 2.018.33.57.912.854 1.774.854.615 0 1.157-.11 1.562-.328V9.158a1.884 1.884 0 0 1-.99.279z" fill="#AEC2D1" fill-rule="evenodd"/>
</svg>
