<svg viewBox="0 0 15 15" xmlns="http://www.w3.org/2000/svg">
    <title>
        linkedin
    </title>
    <path d="M14.97 9.195v5.789h-3.21V9.582c0-1.357-.463-2.283-1.625-2.283-.886 0-1.414.624-1.646 1.228-.084.216-.106.516-.106.818v5.639h-3.21s.044-9.149 0-10.097h3.21V6.32l-.022.032h.022V6.32c.426-.687 1.187-1.669 2.892-1.669 2.111 0 3.694 1.443 3.694 4.545zM1.815.02C.718.02 0 .774 0 1.764c0 .97.697 1.746 1.774 1.746h.021c1.12 0 1.815-.776 1.815-1.746C3.59.774 2.914.02 1.816.02zM.191 14.984h3.208V4.887H.19v10.097z" fill="#AEC2D1" fill-rule="evenodd"/>
</svg>
