<?xml version="1.0" encoding="UTF-8" standalone="no"?>
<svg viewBox="0 0 15 15" version="1.1" xmlns="http://www.w3.org/2000/svg" xmlns:xlink="http://www.w3.org/1999/xlink">
    <!-- Generator: Sketch 3.7.2 (28276) - http://www.bohemiancoding.com/sketch -->
    <title>git</title>
    <desc>Created with Sketch.</desc>
    <defs></defs>
    <g id="Page-1" stroke="none" stroke-width="1" fill="none" fill-rule="evenodd">
        <g id="git" fill="#AEC2D1">
            <path d="M3.12148734,3.64335938 C2.31781646,3.64335938 1.62648734,3.88954102 1.04737342,4.381875 C0.444746835,4.90705078 0.143259494,5.56341797 0.143259494,6.35115234 C0.143259494,6.87632813 0.307436709,7.36866211 0.638417722,7.82818359 C0.933892405,8.25483398 1.24253165,8.5284668 1.64756329,8.64884766 L1.64756329,8.68168945 C1.24253165,8.83473633 1.06265823,9.21767578 1.06265823,9.83039062 C1.06265823,10.300957 1.24259494,10.6510254 1.64756329,10.8808008 L1.64756329,10.9136426 C0.529620253,11.2526367 0.017943038,11.8818164 0.017943038,12.8007422 C0.017943038,13.5996387 0.393702532,14.1848437 1.12658228,14.5567676 C1.70553797,14.8523145 2.44901899,15 3.34724684,15 C5.53348101,15 6.62898734,14.1521191 6.62898734,12.4560937 C6.62898734,11.394873 5.78528481,10.7439551 4.09531646,10.5032227 C3.7053481,10.4486426 3.41041139,10.3172461 3.20952532,10.1093262 C3.05591772,9.96711914 2.97943038,9.82488281 2.97943038,9.68270508 C2.97943038,9.27796875 3.21610759,9.04262695 3.68860759,8.97700195 C4.40946203,8.87868164 4.99759494,8.56942383 5.45262658,8.04984375 C5.90753165,7.53011719 6.13506329,6.92015625 6.13506329,6.22001953 C6.13506329,6.00120117 6.06357595,5.76597656 5.96911392,5.514375 C6.27636076,5.44863281 6.49205696,5.38848633 6.65411392,5.33373047 L6.65411392,3.64335938 C5.94123418,3.90597656 5.27768987,4.03716797 4.71041139,4.03716797 C4.21398734,3.77463867 3.70053797,3.64335938 3.12148734,3.64335938 L3.12148734,3.64335938 Z M3.31648734,11.8325684 C4.30927215,11.8325684 4.80547468,12.1115039 4.80547468,12.6695801 C4.80547468,13.2604395 4.35050633,13.5556934 3.44053797,13.5556934 C2.40060127,13.5556934 1.88063291,13.2711914 1.88063291,12.7023633 C1.88060127,12.1224316 2.35917722,11.8325684 3.31648734,11.8325684 L3.31648734,11.8325684 Z M3.19240506,7.5 C2.44787975,7.5 2.07553797,7.12259766 2.07553797,6.36755859 C2.07553797,5.55805664 2.44787975,5.15311523 3.19240506,5.15311523 C3.54686709,5.15311523 3.8246519,5.2790332 4.02550633,5.53057617 C4.19098101,5.76041016 4.27376582,6.03389648 4.27376582,6.35121094 C4.27376582,7.11700195 3.91322785,7.5 3.19240506,7.5 L3.19240506,7.5 Z M8.58199367,0 C8.23933544,0 7.94689873,0.120322266 7.70452532,0.361054688 C7.46224684,0.601816406 7.34110759,0.8915625 7.34110759,1.23082031 C7.34110759,1.5590918 7.46227848,1.84341797 7.70452532,2.08420898 C7.94674051,2.32494141 8.23920886,2.44514648 8.58199367,2.44514648 C8.9128481,2.44514648 9.19955696,2.32491211 9.44183544,2.08420898 C9.68408228,1.84341797 9.80509494,1.5590918 9.80509494,1.23082031 C9.80509494,0.8915625 9.68408228,0.601757813 9.44183544,0.361054688 C9.19946203,0.120322266 8.9128481,0 8.58199367,0 L8.58199367,0 Z M9.57484177,3.7499707 L7.57155063,3.7499707 C7.59518987,3.9599707 7.56142405,4.27792969 7.56142405,4.79206055 L7.56142405,9.89604492 C7.56142405,10.4212793 7.59518987,10.8448828 7.57155063,11.0098535 L9.57484177,11.0098535 C9.55110759,10.7699707 9.48949367,10.3555371 9.48949367,9.79757812 L9.48949367,4.75930664 C9.48939873,4.27790039 9.55110759,3.9599707 9.57484177,3.7499707 L9.57484177,3.7499707 Z M13.9926582,9.43652344 C13.4725,9.43652344 13.2160443,9.06990234 13.2160443,8.33692383 L13.2160443,5.3099707 L14.0050316,5.3099707 C14.1467722,5.3099707 14.274557,5.30276367 14.4341456,5.31357422 C14.5937342,5.32453125 14.6580696,5.31723633 14.7392089,5.31723633 L14.7392089,3.75 L13.2161392,3.75 L13.2161392,3.0525 C13.2161392,2.7899707 13.2606646,2.5500293 13.2960759,2.4000293 L11.2397785,2.4000293 C11.2752532,2.5500293 11.2718987,2.77907227 11.2718987,3.08542969 L11.2718987,3.75 L10.3807595,3.75 L10.3807595,5.31720703 C10.6238924,5.28439453 10.8410443,5.26804687 10.9945886,5.26804687 L11.2718987,5.28442383 L11.2718987,5.29297852 L11.2718987,5.29297852 L11.2718987,8.25492188 C11.2718987,9.17399414 11.3978165,9.84679688 11.6458544,10.2734766 C11.9768987,10.8424219 12.5576266,11.1268652 13.4201266,11.1268652 C14.0348418,11.1268652 14.5770886,11.0175293 14.9820253,10.7985938 L14.9820253,9.1575 C14.6581013,9.34353516 14.3589241,9.43652344 13.9926582,9.43652344 L13.9926582,9.43652344 Z" id="Shape"></path>
        </g>
    </g>
</svg>