<?xml version="1.0" encoding="UTF-8" standalone="no"?>
<svg viewBox="0 0 15 15" version="1.1" xmlns="http://www.w3.org/2000/svg" xmlns:xlink="http://www.w3.org/1999/xlink">
    <!-- Generator: Sketch 3.7.2 (28276) - http://www.bohemiancoding.com/sketch -->
    <title>linkedin</title>
    <desc>Created with Sketch.</desc>
    <defs></defs>
    <g id="Page-1" stroke="none" stroke-width="1" fill="none" fill-rule="evenodd">
        <g id="linkedin" fill="#AEC2D1">
            <path d="M14.9692691,9.1945267 L14.9692691,14.9839806 L11.7608701,14.9839806 L11.7608701,9.58226942 C11.7608701,8.22531553 11.2968097,7.29924757 10.1354756,7.29924757 C9.24894432,7.29924757 8.72136891,7.92334951 8.48926914,8.52706311 C8.40462877,8.74288835 8.38284223,9.04328883 8.38284223,9.34540049 L8.38284223,14.9839806 L5.17336427,14.9839806 C5.17336427,14.9839806 5.21658933,5.83525485 5.17336427,4.88737864 L8.382529,4.88737864 L8.382529,6.31853155 C8.37602088,6.32923544 8.36756381,6.3407767 8.36143852,6.35115291 L8.382529,6.35115291 L8.382529,6.31853155 C8.80889791,5.6315534 9.57034803,4.65018204 11.27471,4.65018204 C13.3862993,4.65014563 14.9692691,6.09324029 14.9692691,9.1945267 L14.9692691,9.1945267 Z M1.81611369,0.020315534 C0.718155452,0.020315534 0,0.773701456 0,1.76442961 C0,2.73356796 0.69737819,3.50981796 1.77351508,3.50981796 L1.7949536,3.50981796 C2.91417633,3.50981796 3.61023202,2.73371359 3.61023202,1.76442961 C3.58914153,0.773701456 2.91417633,0.020315534 1.81611369,0.020315534 L1.81611369,0.020315534 Z M0.190614849,14.9839806 L3.39887471,14.9839806 L3.39887471,4.88737864 L0.190614849,4.88737864 L0.190614849,14.9839806 L0.190614849,14.9839806 Z" id="LinkedIn"></path>
        </g>
    </g>
</svg>